# xmcd
#
# Track frame offsets:
# 150
# 28724
# 53679
# 67049
# 85028
# 105033
# 121751
# 142425
# 162419
# 180833
# 201420
#
# Disc length: 2986 seconds
#
#
# Revision: 0
# Processed by: cddbd v1.5.2PL0 Copyright (c) Steve Scherf et al.
# Submitted via: FreeRIP 2.945 
#
DISCID=8f0ba80b
DTITLE=Elektrolad - Quadophonic Soul Compilation (SQ) [DTS]
DYEAR=2006
DGENRE=Soul
TTITLE0=The Love I Lost - Harold Melvin and the Blue Notes
TTITLE1=That Lady - The Isley Brothers
TTITLE2=Dance to the Music - Sly and the Family Stone
TTITLE3=Lady Marmalade - Labelle
TTITLE4=Disco Lady - Johnnie Taylor
TTITLE5=T.S.O.P. - MFSB
TTITLE6=Theme from 'Shaft' - Isaac Hayes
TTITLE7=If You're Ready (Come Go With Me) - The Staple Singers
TTITLE8=Then Came You - Dionne Warwicke and Spinners
TTITLE9=Someday We'll All Be Free - Donny Hathaway
TTITLE10=Reasons - Earth, Wind and Fire
EXTD=
EXTT0=
EXTT1=
EXTT2=
EXTT3=
EXTT4=
EXTT5=
EXTT6=
EXTT7=
EXTT8=
EXTT9=
EXTT10=
PLAYORDER=
